<?xml version="1.0" encoding="utf-8"?>
<!-- Generator: Adobe Illustrator 20.1.0, SVG Export Plug-In . SVG Version: 6.00 Build 0)  -->
<svg version="1.1" id="Layer_1" xmlns="http://www.w3.org/2000/svg" xmlns:xlink="http://www.w3.org/1999/xlink" x="0px" y="0px"
	 viewBox="0 0 373.6 503.2" style="enable-background:new 0 0 373.6 503.2;" xml:space="preserve">
<title>Artboard 1</title>
<path d="M155.4,337.9c-0.4,1-0.5,2.1-0.3,3.2c0,15.1,0,30.2,0,45.3c0.1,1.1,0.1,2.1-0.3,3.2c-2.6,0.5-5.3,0.5-7.9,0
	c-0.1-0.6-0.2-1.2-0.2-1.8c0-18.8,0-37.5,0-56.3c0-0.6,0.1-1.2,0.1-2c3.5-0.3,6.9-0.1,10.3-0.2s6.8,0,10.2,0h152.6
	c0.1-0.3,0.1-0.4,0.2-0.4c0-0.1,0-0.2,0-0.3c0-0.2-0.1-0.4-0.1-0.5c0-0.2-0.1-0.3-0.2-0.5L197.7,5.6c0-0.2-0.1-0.3-0.1-0.5
	c2.3-1.1,4.7-2.1,7.2-2.9c0.3,0.2,0.4,0.2,0.4,0.3c0.1,0,0.1,0.1,0.2,0.2c42.3,111.1,84.5,222.3,126.8,333.4c0.1,0.3,0.2,0.7,0.2,1
	c0,0.1,0,0.2-0.1,0.5c-0.9,0-1.9,0.1-2.9,0.1H158.9C157.7,337.5,156.5,337.6,155.4,337.9z"/>
<path d="M111.1,99.4c-12.5,0-22.6-10.1-22.6-22.6c0-12.5,10.1-22.6,22.6-22.6c14.3,0,22.9,12,22.7,23S124.7,99.4,111.1,99.4z
	 M111.1,63.1c-7.3-0.2-13.8,6.3-13.6,13.7s6.3,13.9,13.7,13.7c7.6,0,13.7-6.2,13.7-13.8C125.1,69.3,118.7,63.1,111.1,63.1
	L111.1,63.1z"/>
<path d="M59.3,99.4c-12.5-0.1-22.6-10.3-22.5-22.8C36.9,64.1,47.1,54,59.6,54.1s22.6,10.3,22.5,22.8c0,0.1,0,0.2,0,0.3
	C81.9,88.4,72.7,99.5,59.3,99.4z M45.8,76.7c-0.1,7.5,5.9,13.7,13.4,13.8c0.1,0,0.1,0,0.2,0c7.4,0.1,13.5-5.6,13.8-13.6
	c0.3-7.3-6.2-13.6-13.7-13.8C52,63.1,45.9,69.2,45.8,76.7z"/>
<path d="M310.7,41.5c9.9,0,17.9,8,17.9,17.9c0,9.9-8,17.9-17.9,17.9s-17.9-8-17.9-17.9c0,0,0,0,0,0c-0.1-9.8,7.9-17.9,17.7-17.9
	C310.6,41.5,310.6,41.5,310.7,41.5z M310.7,50.4c-5,0-9,4.1-9,9.1c0,5,4.1,9,9.1,9s9-4.1,9-9.1C319.8,54.3,315.7,50.3,310.7,50.4z"
	/>
<path d="M371,93.1c0,9.9-8,17.9-17.9,17.9c-9.9,0-17.9-8-17.9-17.9c0,0,0,0,0,0c0-9.9,8-17.9,17.9-17.9C363,75.2,371,83.2,371,93.1
	C371,93.1,371,93.1,371,93.1z M362.1,93c-0.1-5-4.2-9-9.2-8.9s-9,4.2-8.9,9.2s4.2,9,9.2,8.9S362.2,98,362.1,93z"/>
<path d="M188.6,497.1c-2.6,0.2-4.9-0.6-7.4-0.7c-3.7-7.9-7-15.9-10.9-23.7c-1.4,7.1-2.2,14.2-3.4,21.3c-1.2,0.5-2.3-0.1-3.4-0.2
	c-1.1,0-2.3-0.2-3.3-0.7c0-2.8,3.9-30.8,4.7-33.8c2.5,0.1,4.9,0.4,7.3,1c1.2,2.8,2.4,5.4,3.6,8s2.3,5.3,3.5,7.9s2.2,5.2,3.7,8.2
	c0.9-2.7,0.9-5.1,1.3-7.4s0.7-4.8,1-7.2c0.2-2.4,0.6-4.8,1.1-7.2c2.4-0.4,4.5,0.5,6.9,0.6c-0.2,3.9-1,7.6-1.4,11.3s-1,7.6-1.6,11.5
	S189.4,493.4,188.6,497.1z"/>
<path d="M307.3,107.4l-6.1-6c0.5-0.9,1.1-1.7,1.9-2.2c13.2-13.2,26.4-26.4,39.6-39.6l8.8-8.8c0.6-0.6,1.3-1.2,2-1.9
	c1.4,0.6,2.2,1.9,3.2,2.8s2,2,3.1,3.1c-0.3,0.5-0.6,0.9-1,1.3c-16.7,16.8-33.5,33.5-50.3,50.3C308.1,106.7,307.8,106.9,307.3,107.4z
	"/>
<path d="M91.8,464.2c5.5-9.5,11.2-18.9,16.7-28.3c0.3-0.4,0.6-0.7,0.9-1.1c0.7,0.4,1.4,0.6,2,1c3.6,2.1,7.1,4.2,10.7,6.3
	c0.5,0.3,0.9,0.6,1.4,0.9c5.7,4,7.9,9.9,5.9,16.5c-1.3,4.4-3.8,8.4-7.4,11.4c-4.6,3.8-9.7,4.4-15.1,2.1c-0.8-0.4-1.6-0.8-2.4-1.2
	c-3.7-2.2-7.4-4.4-11.1-6.6C92.8,465,92.4,464.6,91.8,464.2z M101.8,462.5c2.2,1.6,4.5,2.9,6.9,4.1c2.4,1.2,5.3,0.9,7.4-0.8
	c0.5-0.4,1-0.8,1.4-1.2c2.4-2.5,4-5.6,4.7-8.9c0.4-1.8,0-3.6-1-5.2c-0.8-1.3-1.9-2.4-3.2-3.2c-1.3-0.8-2.7-1.6-4-2.4
	c-0.5-0.3-1-0.5-1.5-0.7L101.8,462.5z"/>
<path d="M200.9,496.8c-0.2-0.4-0.5-0.6-0.5-0.9c-1-11-2-22-3-33.1c0.5-0.2,1.1-0.3,1.6-0.4c4.6-0.4,9.3-0.9,13.9-1.2
	c1.9-0.2,3.8,0,5.6,0.5c4.5,1.2,8.1,4.7,9.5,9.1c1.3,4.1,1.7,8.5,0.9,12.8c0,0.3-0.1,0.5-0.2,0.8c-1.1,5-5,10.1-12.5,11
	c-2.6,0.3-5.2,0.5-7.8,0.7L200.9,496.8z M207.8,489.4c0.3,0.1,0.7,0.1,1,0.1c2-0.2,3.9-0.3,5.9-0.5c3.6-0.3,6.5-3.2,6.9-6.8
	c0.5-3.1,0.1-6.3-1.1-9.2c-1.3-3.1-3.6-5-7-5.1c-2.3,0-4.7,0.1-7,0.4c-0.3,0-0.6,0.3-0.9,0.5C206.1,476.8,207.1,487.1,207.8,489.4
	L207.8,489.4z"/>
<path d="M314.2,422.3c-1.5,1.9-3.5,3.2-5.1,4.8l-2.1-0.9c-1.8-0.7-3.8-0.7-5.5,0.3c-3.9,1.8-5.8,6.4-4.4,10.4
	c1.4,4.2,4.4,7.6,8.3,9.5c4.5,2.1,9.8,0.2,11.9-4.3c0.2-0.5,0.4-1,0.5-1.5c0.6-2.3-0.2-4.2-1.6-6.1c-2.2,1.2-3.6,3.2-5.8,4.6
	c-1.3-1.2-2.5-2.6-3.5-4c1.2-1.6,7.3-7.2,10.5-9.6c1.8,1.3,7.2,7.3,12.3,13.5c-0.1,0.9-0.9,1.2-1.5,1.8s-1.2,1-1.9,1.6l-2.9-1.8
	c-0.2,0.9-0.4,1.5-0.5,2.2c-0.4,2.8-1.8,5.3-4,7.1c-5.6,5.2-14.1,5.8-20.4,1.3c-4.4-2.9-7.5-7.4-8.8-12.5
	c-2.4-10.3,5.5-18.4,13-19.8C307.1,418.3,311,419.1,314.2,422.3z"/>
<path d="M57.5,433.5c-1.6-1.8-3-3.7-4.2-5.7c1-1.4,2.5-2.1,3.8-3.1s2.6-1.9,3.9-2.9c1.3-0.9,2.6-1.9,3.8-2.9
	c-2.3-3.8-5-7.4-7.8-10.9c-0.5,0.3-1,0.6-1.5,0.9c-2.9,2.1-5.8,4.2-8.7,6.3c-0.5,0.4-1,0.6-1.6,1c-1.7-1.9-3.2-3.8-4.5-5.9
	c2.2-1.9,4.6-3.5,6.9-5.2s4.6-3.4,7-5.1l6.8-4.9l7-5.1c1.9,1.8,3,4,4.6,5.9c-0.4,0.5-0.9,0.9-1.4,1.3c-2.4,1.7-4.7,3.4-7,5.1
	c-0.6,0.5-1.2,1-1.8,1.5c2.3,3.8,4.9,7.5,7.8,10.9c0.4-0.2,0.9-0.5,1.3-0.7c2.6-1.8,5.1-3.7,7.6-5.5c0.5-0.4,1-0.7,1.6-1
	c1.6,1.8,3,3.7,4.3,5.8c0,0.1,0,0.3-0.1,0.4c0,0.1-0.1,0.2-0.2,0.2l-25.9,18.9c-0.4,0.3-0.7,0.5-1.1,0.7
	C57.9,433.5,57.8,433.5,57.5,433.5z"/>
<path d="M89.5,426c-1.7,1.5-3.3,3.2-4.8,5l11.9,11.2c-1.1,1.7-2.5,3.2-4.1,4.4c-4.1-3.6-7.8-7.4-12-11c-2,1.8-3.8,3.7-5.5,5.8
	c2.1,2.4,4.5,4.3,6.6,6.4s4.6,4,6.6,6.3c-0.5,0.6-0.9,1.1-1.3,1.6c-0.9,1-1.8,1.9-2.9,3c-0.5-0.3-0.9-0.6-1.3-0.9
	c-5.5-5.1-11-10.3-16.5-15.4c-0.4-0.4-0.8-0.7-1.3-1.1c0.3-0.5,0.6-1,0.9-1.4c7.1-7.7,14.3-15.4,21.5-23c0.2-0.3,0.5-0.5,0.9-0.8
	c0.4,0.2,0.7,0.4,1.1,0.7c5.7,5.2,11.3,10.5,17,15.8c0.3,0.3,0.5,0.6,0.7,0.9c-1.2,1.7-2.6,3.3-4.2,4.6c-2.4-1.9-4.4-4-6.6-6
	S91.9,427.8,89.5,426z"/>
<path d="M137.9,450.5c8.2,2.9,16.1,5.6,24.1,8.5c-0.1,0.6-0.2,1.2-0.4,1.7c-0.5,1.4-1,2.8-1.6,4.4l-16.6-5.8
	c-1.1,1.3-1.9,3.3-2.6,6.5c2.4,1.1,4.9,2,7.4,2.8c2.5,0.9,5,1.8,7.6,2.8c0,2-1,3.7-1.6,5.4c-1,0.3-1.8-0.3-2.6-0.6
	c-4.2-1.5-8.4-3-12.8-4.5c-0.3,0.4-0.6,0.9-0.8,1.3c-0.7,2-1.4,4-2.2,6.2c0.9,0.4,1.6,0.7,2.3,1c4.6,1.6,9.1,3.2,13.7,4.9
	c0.4,0.1,0.8,0.4,1.3,0.6c-0.6,2-1.3,4-2.2,5.9c-8.2-2.8-16.1-5.7-24.1-8.5c-0.3-0.8-0.2-1.7,0.3-2.5c3-8.5,6-17.1,9-25.6
	C136.7,453.7,137.2,452.3,137.9,450.5z"/>
<path d="M326.2,425.9c1.3-2,2.8-3.9,4.3-5.7c0.6,0.3,1.2,0.6,1.7,0.8c1.7,0.6,3.6,0.4,5.1-0.7c1.9-1.3,3.4-3.2,4.2-5.5
	c0.3-0.8,0.4-1.7,0.3-2.6c-0.2-1.8-1.7-3.1-3.5-2.9c-0.3,0-0.6,0.1-0.9,0.2c-1.2,0.5-2.4,1.2-3.5,2c-1.6,1.2-3,2.5-4.6,3.7
	c-1.3,1-2.6,1.9-4,2.7c-3.6,2.1-8.1,1.3-10.9-1.8c-1.3-1.3-2.2-3.1-2.4-5c-0.3-2-0.1-4,0.5-5.8c1.3-3.9,3.9-7.2,7.3-9.4
	c3.3-2.4,7.7-2.6,11.2-0.5c0.3,0.2,0.6,0.5,0.9,0.7c-1,2.2-2.6,3.8-4,5.8c-0.7-0.2-1.3-0.4-1.9-0.6c-1.2-0.4-2.5-0.3-3.6,0.5
	c-1.8,1.1-3.1,2.7-3.9,4.7c-0.3,0.8-0.3,1.6-0.2,2.4c0.3,1.6,1.8,2.7,3.4,2.5c0.3,0,0.6-0.1,0.8-0.3c1.2-0.7,2.3-1.4,3.3-2.3
	c2-1.5,3.9-3.2,5.9-4.8c1.9-1.5,4.3-2.4,6.7-2.5c4.4-0.3,9.2,4,9.6,8.5c0.2,2.1,0,4.1-0.7,6.1c-1.5,4.1-4.2,7.6-7.7,10.1
	c-2.8,2.2-6.5,2.9-9.9,1.8C328.6,427.6,327.3,426.9,326.2,425.9z"/>
<path d="M288.3,462.9l-10.8,6c-0.1,2.7,0.8,5.2,1,7.9c-1.9,1.5-4.1,2.7-6.3,3.6c-0.9-2.4-4.9-28-5.7-36c2.2-1.4,4.4-2.7,6.8-3.9
	c9,7.6,17.9,15.2,26.9,22.8c0.3,0.3,0.6,0.7,0.9,1.1c-2.1,1.4-4.4,2.6-6.7,3.7C292.2,466.6,290.6,464.5,288.3,462.9z M274.5,450.6
	c-0.1,0.7-0.1,1.4,0,2.1c0.6,3.3,0.9,6.6,1.8,9.9c2.6-0.9,5-2.3,7.1-4.1C280.5,455.9,277.8,453.2,274.5,450.6L274.5,450.6z"/>
<path d="M269.1,482.3l-7.1,2.3c-2-1.8-3.1-4.2-5-6.1c-2.1,0-4,1.1-6.1,1.7s-3.9,1.3-5.9,1.9c-0.7,2.7,0.1,5.5-0.7,8.2l-6.6,2.1
	c-0.7-0.6-0.5-1.3-0.4-1.8c0.2-5.2,0.5-10.4,0.7-15.6c0.2-3.3,0.3-6.6,0.5-9.9c0.1-3,0.3-6.1,0.5-9.2c2.4-1,4.8-1.8,7.3-2.5
	C248.3,455.6,267.8,480.1,269.1,482.3z M245.4,463.8c-0.6,7.5-0.7,10-0.1,11.9c2.6-0.4,5.1-1.2,7.4-2.5
	C250.7,469.7,248.2,466.6,245.4,463.8L245.4,463.8z"/>
<path d="M17.4,99.4c-0.2-3.4-0.1-6.3-0.1-9.2s0-5.9,0-8.9s0-5.9,0-8.9s0.1-5.9-0.1-9c-0.5-0.1-1.1-0.2-1.6-0.3c-2.1,0-4.3,0-6.5,0
	c-0.8-1.5-0.4-3.1-0.4-4.6c-0.2-1.4-0.1-2.8,0.2-4.2c5.6-0.4,11.3-0.4,16.9-0.1c0.1,0.5,0.3,0.9,0.3,1.4c0,1.2,0,2.3,0,3.5
	c0,12.2,0,24.4,0,36.6c0,1.1,0,2.1-0.1,3.3C23.1,99.7,20.4,99.3,17.4,99.4z"/>
</svg>
