<svg id="Layer_1" data-name="Layer 1" xmlns="http://www.w3.org/2000/svg" viewBox="0 0 373.61 503.2"><defs><style>.cls-1{fill:#fff;}</style></defs><title>Artboard 1</title><path class="cls-1" d="M155.42,337.93a6.83,6.83,0,0,0-.3,3.21q0,22.63,0,45.26a7.35,7.35,0,0,1-.26,3.16,22.64,22.64,0,0,1-7.86,0,15.44,15.44,0,0,1-.19-1.77q0-28.16,0-56.31c0-.61.07-1.21.12-1.95,3.54-.34,6.94-.12,10.32-.16s6.83,0,10.24,0H320.12c.1-.28.14-.36.16-.44a.75.75,0,0,0,0-.26,3.8,3.8,0,0,0-.1-.53c0-.17-.11-.34-.18-.51L197.67,5.55a4.39,4.39,0,0,1-.1-.47,55.66,55.66,0,0,1,7.2-2.88c.28.18.36.22.42.28a.56.56,0,0,1,.18.19q63.38,166.7,126.75,333.41a6.58,6.58,0,0,1,.25,1c0,.08,0,.17-.1.45-.92,0-1.9.08-2.87.08H158.86A7.81,7.81,0,0,0,155.42,337.93Z"/><path class="cls-1" d="M111.13,99.36a22.63,22.63,0,0,1,0-45.26c14.31,0,22.93,12,22.71,23.05S124.7,99.45,111.13,99.36Zm0-36.28c-7.26-.21-13.77,6.33-13.64,13.7s6.27,13.88,13.71,13.7a13.74,13.74,0,0,0,13.7-13.77C125.14,69.34,118.66,63.08,111.18,63.09Z"/><path class="cls-1" d="M59.35,99.36A22.63,22.63,0,1,1,82.11,77.19C81.92,88.36,72.71,99.48,59.35,99.36ZM45.78,76.69A13.6,13.6,0,0,0,59.41,90.45c7.42.06,13.51-5.55,13.81-13.64.27-7.33-6.23-13.59-13.69-13.75A13.81,13.81,0,0,0,45.78,76.69Z"/><path class="cls-1" d="M310.71,41.49a17.93,17.93,0,1,1-17.92,17.92A17.81,17.81,0,0,1,310.71,41.49Zm0,8.87a9,9,0,1,0,.13,18.08,9,9,0,0,0-.13-18.08Z"/><path class="cls-1" d="M371,93.13a17.93,17.93,0,1,1-35.86,0,17.93,17.93,0,1,1,35.86,0Zm-8.87-.08a9,9,0,1,0-18.08.33,9,9,0,0,0,18.08-.33Z"/><path class="cls-1" d="M188.58,497.09c-2.58.16-4.9-.64-7.39-.73-3.68-7.91-7-15.89-10.86-23.67-1.45,7.09-2.21,14.19-3.38,21.3-1.23.48-2.33-.15-3.45-.21a8.51,8.51,0,0,1-3.34-.66c0-2.82,3.92-30.84,4.73-33.75a36.08,36.08,0,0,1,7.32,1c1.23,2.75,2.41,5.36,3.57,8s2.3,5.26,3.49,7.88,2.22,5.24,3.72,8.18c.9-2.73.9-5.13,1.32-7.44s.67-4.8,1-7.2a60,60,0,0,1,1.14-7.18c2.36-.35,4.48.45,6.85.62-.17,3.93-1,7.6-1.41,11.31s-1,7.65-1.61,11.46S189.44,493.41,188.58,497.09Z"/><path class="cls-1" d="M307.3,107.37l-6.12-6a6.62,6.62,0,0,1,1.89-2.25q19.79-19.82,39.6-39.61l8.76-8.76c.63-.63,1.28-1.25,2-1.92,1.4.64,2.21,1.87,3.24,2.83s2,2,3.1,3.11a13.71,13.71,0,0,1-1,1.35q-25.12,25.14-50.26,50.27C308.13,106.66,307.79,106.94,307.3,107.37Z"/><path class="cls-1" d="M91.79,464.25c5.54-9.51,11.16-18.89,16.72-28.3a9.31,9.31,0,0,1,.89-1.08c.71.36,1.36.65,2,1q5.34,3.14,10.66,6.31c.46.27.92.57,1.36.88,5.67,4,7.85,9.9,5.89,16.52a22.94,22.94,0,0,1-7.37,11.36c-4.57,3.79-9.68,4.39-15.13,2.13a19.48,19.48,0,0,1-2.39-1.23q-5.57-3.27-11.12-6.58C92.8,465,92.38,464.65,91.79,464.25Zm10-1.7a50,50,0,0,0,6.93,4.12,7,7,0,0,0,7.38-.78,9.35,9.35,0,0,0,1.45-1.2,17.92,17.92,0,0,0,4.69-8.93,6.93,6.93,0,0,0-1-5.16,9.77,9.77,0,0,0-3.23-3.18Q116,446.2,114,445.06a15.37,15.37,0,0,0-1.53-.67Z"/><path class="cls-1" d="M200.85,496.78c-.24-.42-.46-.64-.48-.87-1-11-2-22-3-33.09a11.25,11.25,0,0,1,1.61-.41c4.65-.44,9.29-.88,13.94-1.25a15.78,15.78,0,0,1,5.6.54,13.74,13.74,0,0,1,9.49,9.15,26.67,26.67,0,0,1,.95,12.77c0,.26-.15.52-.21.78-1.07,5-5,10.07-12.46,11-2.58.31-5.18.48-7.78.71Zm6.9-7.35a5.07,5.07,0,0,0,1,.11c2-.16,3.94-.27,5.89-.55a7.63,7.63,0,0,0,6.91-6.83,17.26,17.26,0,0,0-1.07-9.25c-1.29-3.08-3.59-5-7-5.06a67.54,67.54,0,0,0-7,.39c-.31,0-.6.31-.86.45C206.08,476.83,207.1,487.11,207.76,489.43Z"/><path class="cls-1" d="M314.17,422.32c-1.52,1.88-3.46,3.17-5.15,4.78l-2.09-.89a6.27,6.27,0,0,0-5.46.27,8.38,8.38,0,0,0-4.35,10.43,16.08,16.08,0,0,0,8.31,9.47,8.93,8.93,0,0,0,12.42-5.73c.65-2.3-.2-4.21-1.57-6.1-2.18,1.18-3.6,3.25-5.78,4.61a36.51,36.51,0,0,1-3.54-4c1.16-1.65,7.27-7.22,10.51-9.61,1.75,1.27,7.22,7.26,12.3,13.47-.07.91-.94,1.22-1.47,1.76s-1.22,1-1.91,1.62l-2.87-1.77c-.18.87-.36,1.55-.45,2.25a11.12,11.12,0,0,1-4,7.11,16,16,0,0,1-20.35,1.26,20.7,20.7,0,0,1-8.77-12.48c-2.43-10.29,5.45-18.44,13-19.76C307.11,418.32,311,419.11,314.17,422.32Z"/><path class="cls-1" d="M57.52,433.47a39.75,39.75,0,0,1-4.25-5.68c1-1.39,2.54-2.1,3.79-3.08s2.62-1.89,3.91-2.87a38.32,38.32,0,0,0,3.78-2.9,91.75,91.75,0,0,0-7.82-10.87,17.32,17.32,0,0,0-1.52.89c-2.91,2.1-5.8,4.23-8.71,6.33-.49.36-1,.65-1.64,1a47.9,47.9,0,0,1-4.52-5.94c2.21-1.93,4.62-3.48,6.91-5.18s4.63-3.4,7-5.09l6.75-4.91,7-5.1c1.92,1.78,3,4,4.63,5.9a18,18,0,0,1-1.42,1.32C69,399,66.7,400.7,64.39,402.4c-.64.47-1.25,1-1.85,1.47a84.48,84.48,0,0,0,7.83,10.89,13.07,13.07,0,0,0,1.28-.73c2.55-1.84,5.08-3.7,7.62-5.54.49-.36,1-.66,1.64-1.05a50.07,50.07,0,0,1,4.29,5.76,2.5,2.5,0,0,1-.07.43.53.53,0,0,1-.16.21L59.11,432.77a12,12,0,0,1-1.14.7C57.9,433.5,57.79,433.47,57.52,433.47Z"/><path class="cls-1" d="M89.47,426a48.76,48.76,0,0,0-4.82,5L96.6,442.25a19.6,19.6,0,0,1-4.09,4.41c-4.1-3.58-7.85-7.42-12-11A53.54,53.54,0,0,0,75,441.45c2.09,2.38,4.49,4.26,6.64,6.39s4.56,4,6.6,6.32c-.5.61-.88,1.1-1.3,1.56-.91,1-1.85,1.94-2.89,3a12.23,12.23,0,0,1-1.3-.92q-8.29-7.7-16.55-15.41c-.39-.37-.82-.7-1.31-1.12a9.89,9.89,0,0,1,.9-1.42q10.72-11.54,21.47-23.05c.24-.26.52-.48.9-.82a6.61,6.61,0,0,1,1.08.67q8.5,7.87,17,15.76a8.19,8.19,0,0,1,.73.93,21.37,21.37,0,0,1-4.24,4.57c-2.37-1.87-4.38-4-6.6-6S91.93,427.77,89.47,426Z"/><path class="cls-1" d="M137.86,450.52c8.21,2.86,16.13,5.61,24.09,8.53a13.92,13.92,0,0,1-.35,1.72c-.49,1.42-1,2.83-1.63,4.42l-16.58-5.81c-1.09,1.26-1.9,3.3-2.57,6.5a59.16,59.16,0,0,0,7.42,2.8c2.51.94,5,1.82,7.63,2.75,0,2-1,3.67-1.62,5.43-1,.26-1.79-.29-2.59-.57-4.23-1.46-8.45-3-12.81-4.51a8.07,8.07,0,0,0-.79,1.32c-.74,2-1.43,4-2.19,6.22.85.37,1.55.72,2.28,1,4.56,1.63,9.12,3.23,13.68,4.85.4.14.78.35,1.31.6a34.85,34.85,0,0,1-2.2,5.93c-8.16-2.77-16.14-5.66-24.05-8.45a3,3,0,0,1,.29-2.45q4.52-12.8,9-25.61C136.71,453.72,137.23,452.3,137.86,450.52Z"/><path class="cls-1" d="M326.21,425.88a59.73,59.73,0,0,1,4.31-5.71c.62.27,1.16.57,1.74.76a5.57,5.57,0,0,0,5.13-.71,11.27,11.27,0,0,0,4.22-5.45,6.12,6.12,0,0,0,.3-2.63,3.2,3.2,0,0,0-4.33-2.71,15.78,15.78,0,0,0-3.46,2c-1.59,1.16-3,2.52-4.62,3.7a28.78,28.78,0,0,1-4,2.67A8.68,8.68,0,0,1,314.65,416a8.44,8.44,0,0,1-2.41-5,12.54,12.54,0,0,1,.55-5.84,18.48,18.48,0,0,1,7.3-9.4,10,10,0,0,1,11.17-.46,7.09,7.09,0,0,1,.89.74c-1,2.16-2.64,3.82-4,5.81-.69-.22-1.27-.4-1.85-.59a4.06,4.06,0,0,0-3.61.45,9.26,9.26,0,0,0-3.86,4.69,4.85,4.85,0,0,0-.19,2.37,3,3,0,0,0,4.28,2.21,22.23,22.23,0,0,0,3.32-2.27c2-1.55,3.87-3.2,5.85-4.75a11.81,11.81,0,0,1,6.69-2.47c4.38-.3,9.25,4,9.58,8.49a13.94,13.94,0,0,1-.7,6.09,21.34,21.34,0,0,1-7.74,10.1A11,11,0,0,1,330,428,8.44,8.44,0,0,1,326.21,425.88Z"/><path class="cls-1" d="M288.29,462.89l-10.76,6c-.08,2.69.81,5.17,1,7.93a27.82,27.82,0,0,1-6.32,3.57c-.89-2.39-4.89-28-5.66-36a53.6,53.6,0,0,1,6.76-3.86c9,7.56,17.92,15.18,26.88,22.75a10.08,10.08,0,0,1,.93,1.06,54,54,0,0,1-6.69,3.71C292.22,466.57,290.57,464.52,288.29,462.89Zm-13.84-12.34a12.67,12.67,0,0,0,0,2.1c.65,3.28.91,6.63,1.84,9.87a22,22,0,0,0,7.13-4.07C280.54,455.87,277.75,453.2,274.45,450.55Z"/><path class="cls-1" d="M269.1,482.33,262,484.66c-2-1.76-3.09-4.19-5-6.1-2.13,0-4,1.11-6.07,1.71s-3.9,1.26-5.85,1.9c-.72,2.74.12,5.49-.69,8.21l-6.55,2.15c-.67-.6-.46-1.26-.44-1.83.22-5.19.47-10.38.71-15.57.16-3.31.3-6.62.47-9.93.15-3,.33-6.06.51-9.2a47.27,47.27,0,0,1,7.27-2.45C248.31,455.61,267.78,480.14,269.1,482.33Zm-23.68-18.58c-.64,7.45-.66,10-.12,11.94a20.53,20.53,0,0,0,7.43-2.55A53,53,0,0,0,245.42,463.74Z"/><path class="cls-1" d="M17.35,99.42c-.22-3.36-.09-6.31-.12-9.25s0-5.93,0-8.89,0-5.93,0-8.89.08-5.91-.08-9a10.74,10.74,0,0,0-1.59-.27c-2.15,0-4.3,0-6.51,0-.79-1.54-.38-3.08-.42-4.56a13.28,13.28,0,0,1,.19-4.18,143.53,143.53,0,0,1,16.94-.12,8.08,8.08,0,0,1,.31,1.43c0,1.17,0,2.33,0,3.5q0,18.32,0,36.64c0,1.06,0,2.13-.07,3.31C23.14,99.7,20.4,99.26,17.35,99.42Z"/></svg>